#!OML:ASF H:\Terrain\Patient Classification 1\Terrain2\Thursday\justin.ASF
:FULLY-SPECIFIED
:DEGREES
1510
root -1.26747 18.329 17.5329 185.888 -1.72893 -170.385
lowerback 11.8544 2.61456 7.7301
upperback 3.80044 3.86171 3.16696
thorax -2.3175 1.6625 -1.53123
lowerneck -10.146 -0.246995 -9.07822
upperneck 36.6964 -5.68043 7.86485
head 14.8344 -4.05785 3.68626
rclavicle -3.67752e-014 -4.9895e-014
rhumerus -26.9832 -4.67902 -84.3375
rradius 33.6948
rwrist -10.8426
rhand -21.1579 10.5077
rfingers 7.12502
rthumb 5.22189 -19.408
lclavicle -3.67752e-014 -4.9895e-014
lhumerus -35.9603 4.53494 84.5014
lradius 31.3929
lwrist 2.81744
lhand -23.0716 22.1089
lfingers 7.12502
lthumb 3.37396 52.062
rfemur 4.98628 -2.6173 29.0613
rtibia 21.8284
rfoot 1.803 7.68229
rtoes -0.26169
lfemur -56.5937 2.2364 -10.3636
ltibia 70.1049
lfoot -14.8724 -15.473
ltoes 2.16749
1511
root -1.29446 18.4236 17.4507 186.232 -1.67218 -170.376
lowerback 11.723 2.70585 7.67156
upperback 3.56371 4.0155 3.07439
thorax -2.48223 1.74502 -1.61518
lowerneck -9.70303 -0.189181 -8.72993
upperneck 36.6253 -5.64095 7.59239
head 14.6714 -4.04411 3.51322
rclavicle -9.54166e-015 -7.7526e-015
rhumerus -27.3765 -4.59547 -84.4558
rradius 33.817
rwrist -10.8098
rhand -21.2372 10.3654
rfingers 7.12502
rthumb 5.14529 -19.5521
lclavicle -9.54166e-015 -7.7526e-015
lhumerus -35.9828 3.68823 84.7769
lradius 31.6546
lwrist 3.23831
lhand -21.5114 20.7416
lfingers 7.12502
lthumb 4.88054 50.6654
rfemur 4.3612 -2.87576 28.8237
rtibia 22.2122
rfoot 3.95917 7.75788
rtoes 1.15476
lfemur -55.9984 2.02266 -10.3523
ltibia 69.2703
lfoot -14.919 -15.323
ltoes 3.10688
1512
root -1.32281 18.4991 17.372 186.318 -1.46207 -170.359
lowerback 11.8691 2.81977 7.66609
upperback 3.40803 4.21053 2.95355
thorax -2.70255 1.8404 -1.7747
lowerneck -9.41428 -0.101052 -8.27176
upperneck 36.5936 -5.55991 7.33151
head 14.5569 -3.99012 3.33299
rclavicle 1.93815e-014 3.83654e-014
rhumerus -27.659 -4.68671 -84.6309
rradius 33.8438
rwrist -10.5687
rhand -21.4257 10.1475
rfingers 7.12502
rthumb 4.9633 -19.7743
lclavicle 1.93815e-014 3.83654e-014
lhumerus -36.1529 3.2042 84.7314
lradius 32.0944
lwrist 2.59451
lhand -19.9573 19.6071
lfingers 7.12502
lthumb 6.38101 49.4909
rfemur 3.81498 -2.77565 28.6089
rtibia 22.8653
rfoot 6.05725 7.60985
rtoes 5.66691
lfemur -55.1687 1.85227 -10.3302
ltibia 68.4593
lfoot -15.2992 -14.945
ltoes 2.13377
1513
root -1.34451 18.575 17.2947 186.458 -1.41366 -170.492
lowerback 11.9012 2.89279 7.38748
upperback 3.23368 4.31722 2.87364
thorax -2.91279 1.89578 -1.72609
lowerneck -9.03205 -0.0856177 -8.14322
upperneck 36.6522 -5.71951 7.39335
head 14.5122 -4.06676 3.31195
rclavicle -7.44449e-014 -1.98785e-014
rhumerus -27.956 -5.04176 -84.5479
rradius 33.8321
rwrist -9.16982
rhand -20.6552 10.3147
rfingers 7.12502
rthumb 5.70721 -19.5884
lclavicle -7.44449e-014 -1.98785e-014
lhumerus -36.3719 2.55331 84.8166
lradius 32.7125
lwrist 2.22858
lhand -19.3274 19.3991
lfingers 7.12502
lthumb 6.98913 49.2637
rfemur 3.16798 -2.87525 28.289
rtibia 23.7396
rfoot 7.74358 7.55083
rtoes 9.52929
lfemur -54.4638 1.59302 -10.4664
ltibia 67.6215
lfoot -15.7027 -14.4093
ltoes -0.0706406
1514
root -1.36421 18.6636 17.2156 186.7 -1.42625 -170.705
lowerback 11.7808 2.96248 7.06798
upperback 3.06979 4.40241 2.75443
thorax -3.03084 1.94749 -1.68462
lowerneck -8.70982 -0.137775 -7.99542
upperneck 36.6975 -5.91965 7.33799
head 14.4759 -4.16512 3.23266
rclavicle -6.3462e-014 -2.0276e-014
rhumerus -28.2693 -5.40229 -84.4344
rradius 33.8584
rwrist -7.80817
rhand -20.0193 11.2935
rfingers 7.12502
rthumb 6.32119 -18.5922
lclavicle -6.3462e-014 -2.0276e-014
lhumerus -36.3814 1.57572 85.1077
lradius 33.2834
lwrist 2.72276
lhand -19.731 19.4222
lfingers 7.12502
lthumb 6.59955 49.2994
rfemur 2.40939 -3.16814 27.9028
rtibia 24.6994
rfoot 9.17969 7.53693
rtoes 10.1829
lfemur -53.8237 1.26216 -10.6921
ltibia 66.7252
lfoot -15.5813 -13.9667
ltoes -0.435877
